HIERARCHY
ROOT Hips
{
	OFFSET 0.000000 0.000000 0.000000
	CHANNELS 6 Xposition Yposition Zposition Zrotation Yrotation Xrotation 
	JOINT LHipJoint
	{
		OFFSET 0.000000 0.000000 0.000000
		CHANNELS 3 Zrotation Yrotation Xrotation
		JOINT LeftUpLeg
		{
			OFFSET 1.363060 -1.794630 0.839290
			CHANNELS 3 Zrotation Yrotation Xrotation
			JOINT LeftLeg
			{
				OFFSET 2.448110 -6.726130 0.000000
				CHANNELS 3 Zrotation Yrotation Xrotation
				JOINT LeftFoot
				{
					OFFSET 2.562200 -7.039590 0.000000
					CHANNELS 3 Zrotation Yrotation Xrotation
					JOINT LeftToeBase
					{
						OFFSET 0.157640 -0.433110 2.322550
						CHANNELS 3 Zrotation Yrotation Xrotation
						End Site
						{
							OFFSET 0.000000 0.000000 0.000000
						}
					}
				}
			}
		}
	}
	JOINT RHipJoint
	{
		OFFSET 0.000000 0.000000 0.000000
		CHANNELS 3 Zrotation Yrotation Xrotation
		JOINT RightUpLeg
		{
			OFFSET -1.305520 -1.794630 0.839290
			CHANNELS 3 Zrotation Yrotation Xrotation
			JOINT RightLeg
			{
				OFFSET -2.542530 -6.985550 0.000000
				CHANNELS 3 Zrotation Yrotation Xrotation
				JOINT RightFoot
				{
					OFFSET -2.568260 -7.056230 0.000000
					CHANNELS 3 Zrotation Yrotation Xrotation
					JOINT RightToeBase
					{
						OFFSET -0.164730 -0.452590 2.363150
						CHANNELS 3 Zrotation Yrotation Xrotation
						End Site
						{
							OFFSET 0.000000 0.000000 0.000000
						}
					}
				}
			}
		}
	}
	JOINT LowerBack
	{
		OFFSET 0.000000 0.000000 0.000000
		CHANNELS 3 Zrotation Yrotation Xrotation
		JOINT Spine
		{
			OFFSET 0.028270 2.035590 -0.193380
			CHANNELS 3 Zrotation Yrotation Xrotation
			JOINT Spine1
			{
				OFFSET 0.056720 2.048850 -0.042750
				CHANNELS 3 Zrotation Yrotation Xrotation
				JOINT Neck
				{
					OFFSET 0.000000 0.000000 0.000000
					CHANNELS 3 Zrotation Yrotation Xrotation
					JOINT Neck1
					{
						OFFSET -0.054170 1.746240 0.172020
						CHANNELS 3 Zrotation Yrotation Xrotation
						JOINT Head
						{
							OFFSET 0.104070 1.761360 -0.123970
							CHANNELS 3 Zrotation Yrotation Xrotation
							End Site
							{
								OFFSET 0.000000 0.000000 0.000000
							}
						}
					}
				}
				JOINT LeftShoulder
				{
					OFFSET 0.000000 0.000000 0.000000
					CHANNELS 3 Zrotation Yrotation Xrotation
					JOINT LeftArm
					{
						OFFSET 3.362410 1.200890 -0.311210
						CHANNELS 3 Zrotation Yrotation Xrotation
						JOINT LeftForeArm
						{
							OFFSET 4.983000 -0.000000 -0.000000
							CHANNELS 3 Zrotation Yrotation Xrotation
							JOINT LeftHand
							{
								OFFSET 3.483560 -0.000000 -0.000000
								CHANNELS 3 Zrotation Yrotation Xrotation
								JOINT LeftFingerBase
								{
									OFFSET 0.000000 0.000000 0.000000
									CHANNELS 3 Zrotation Yrotation Xrotation
									JOINT LeftHandIndex1
									{
										OFFSET 0.715260 -0.000000 -0.000000
										CHANNELS 3 Zrotation Yrotation Xrotation
										End Site
										{
											OFFSET 0.000000 0.000000 0.000000
										}
									}
								}
								JOINT LThumb
								{
									OFFSET 0.000000 0.000000 0.000000
									CHANNELS 3 Zrotation Yrotation Xrotation
									End Site
									{
										OFFSET 0.000000 0.000000 0.000000
									}
								}
							}
						}
					}
				}
				JOINT RightShoulder
				{
					OFFSET 0.000000 0.000000 0.000000
					CHANNELS 3 Zrotation Yrotation Xrotation
					JOINT RightArm
					{
						OFFSET -3.136600 1.374050 -0.404650
						CHANNELS 3 Zrotation Yrotation Xrotation
						JOINT RightForeArm
						{
							OFFSET -5.241900 -0.000000 -0.000000
							CHANNELS 3 Zrotation Yrotation Xrotation
							JOINT RightHand
							{
								OFFSET -3.444170 -0.000000 -0.000000
								CHANNELS 3 Zrotation Yrotation Xrotation
								JOINT RightFingerBase
								{
									OFFSET 0.000000 0.000000 0.000000
									CHANNELS 3 Zrotation Yrotation Xrotation
									JOINT RightHandIndex1
									{
										OFFSET -0.622530 -0.000000 -0.000000
										CHANNELS 3 Zrotation Yrotation Xrotation
										End Site
										{
											OFFSET 0.000000 0.000000 0.000000
										}
									}
								}
								JOINT RThumb
								{
									OFFSET 0.000000 0.000000 0.000000
									CHANNELS 3 Zrotation Yrotation Xrotation
									End Site
									{
										OFFSET 0.000000 0.000000 0.000000
									}
								}
							}
						}
					}
				}
			}
		}
	}
}
MOTION
Frames: 9
Frame Time: 0.008333
9.786389 16.424697 0.063306 -3.541341 -61.911788 11.716756 -0.834508 -0.417519 -0.691625 4.480302 -3.277770 -24.859509 4.420567 13.228165 38.915535 1.702312 -8.927869 -12.082650 2.035100 -8.938900 -25.604300 1.705806 0.882390 -0.878706 -3.638791 4.736829 -29.715386 -6.577802 -14.858034 46.891015 0.913715 -6.279491 -5.894832 -1.754400 8.334500 -23.734800 -1.810314 1.111591 20.015830 0.455688 1.018065 4.068371 1.320300 -0.076735 1.450974 -10.600720 -6.648432 -9.350773 10.996155 -5.775999 -17.458723 5.035300 -3.050200 0.740400 -0.960096 4.993088 -2.083153 -62.589116 31.378533 -9.432279 10.589273 -18.297119 -0.556109 0.377878 -1.291315 26.227586 6.802079 50.352271 4.637700 -7.125000 0.000000 0.000000 -64.859600 72.940900 -47.864600 -1.498712 -3.999043 -1.417952 75.828631 -22.146788 -23.842893 -17.459176 29.087540 -4.066219 0.875162 0.078774 6.525739 -27.917157 19.802063 -10.358700 7.125000 0.000000 0.000000 -0.300200 -8.049200 -0.255200 
9.697266 16.424302 -0.034126 -4.500188 -60.966943 12.739626 -0.817974 -0.420266 -0.710960 5.446128 -3.727455 -24.862119 4.281236 13.079691 38.343511 1.610724 -7.743792 -12.326062 2.868900 -10.479700 -30.544500 1.688353 0.884795 -0.868796 -3.209284 5.399463 -28.528770 -6.135733 -14.457889 45.167459 0.538237 -4.676257 -6.033897 -2.255400 9.378900 -26.988000 -1.428488 1.056989 19.360087 0.524417 1.030174 4.076655 1.234692 -0.058619 1.788268 -10.796039 -6.989663 -9.176599 11.399311 -6.139602 -17.280277 5.165000 -3.233000 0.821300 -0.957834 5.024532 -2.073979 -62.440840 31.451380 -10.058971 10.472813 -18.130858 -0.518974 0.370383 -1.291995 26.503754 7.125780 50.209594 4.884100 -7.125000 0.000000 0.000000 -64.242700 73.006800 -47.394400 -1.505332 -3.980435 -1.403635 75.523694 -22.114786 -23.714493 -17.326038 28.892808 -3.994230 0.874550 0.102027 7.579346 -28.768811 18.658194 -10.099100 7.125000 0.000000 0.000000 -0.990900 -9.204400 -0.819800 
9.626047 16.409860 -0.153714 -4.034780 -60.042475 12.281678 -0.835770 -0.421275 -0.706113 5.911864 -4.583793 -24.600356 4.146642 12.912329 37.731067 1.616847 -8.277739 -11.678869 2.398700 -9.651300 -27.854700 1.676003 0.899871 -0.859317 -3.440890 5.793881 -27.346900 -5.804223 -14.155865 43.866869 0.255655 -3.519195 -6.713337 -2.612400 10.039500 -29.104600 -2.002300 1.009775 19.337486 0.541937 0.905934 4.031434 1.612055 -0.154114 1.702243 -11.398182 -7.382903 -8.785669 12.280710 -6.431400 -17.348946 5.508100 -3.382300 0.836100 -0.960332 5.079080 -2.066071 -62.500866 31.635431 -11.486776 10.342873 -17.958654 -0.474872 0.349065 -1.295274 27.134904 7.454768 50.309286 5.155300 -7.125000 0.000000 0.000000 -64.371700 73.171300 -47.692000 -1.524904 -3.913883 -1.384956 75.068413 -22.084808 -23.714179 -17.333507 28.890148 -3.988240 0.873357 0.106411 8.352625 -29.260239 18.162324 -10.021500 7.125000 0.000000 0.000000 -1.370000 -9.688000 -1.120200 
9.570555 16.390374 -0.274490 -3.179455 -59.324663 11.497779 -0.861558 -0.421457 -0.694451 6.092884 -5.289167 -24.390873 3.991562 12.721898 37.047136 1.604853 -8.540487 -11.144997 2.004400 -8.875200 -25.405700 1.670995 0.912549 -0.847768 -3.820715 5.926358 -26.564961 -5.602524 -13.969879 43.067408 0.132066 -3.063504 -7.352972 -2.540300 9.910900 -28.688500 -2.666689 1.034435 19.579872 0.527397 0.854070 3.898718 1.974744 -0.204513 1.328344 -12.145156 -7.795905 -8.316808 13.038396 -6.760213 -17.465043 5.844500 -3.550000 0.838400 -0.958527 5.123109 -2.059907 -62.455740 31.891781 -12.374289 10.230437 -17.796615 -0.431112 0.332301 -1.296598 27.519788 7.576441 50.683058 5.284600 -7.125000 0.000000 0.000000 -65.480600 73.360400 -48.887100 -1.560629 -3.833394 -1.371694 74.379997 -22.148916 -23.849251 -17.346384 28.914433 -3.992766 0.871275 0.090340 8.434165 -29.017483 18.538119 -10.133300 7.125000 0.000000 0.000000 -1.163600 -9.294500 -0.960600 
9.510415 16.380977 -0.389825 -2.485233 -58.674185 10.875414 -0.888283 -0.423088 -0.682938 6.218520 -5.890744 -24.132167 3.811096 12.505009 36.282040 1.532660 -7.930985 -10.934504 2.390600 -9.636100 -27.806300 1.668564 0.919060 -0.833282 -4.059752 5.973126 -25.907244 -5.513611 -13.897467 42.725525 -0.000837 -2.584453 -8.005977 -2.635700 10.080500 -29.237900 -3.024223 1.137447 19.797082 0.452640 0.935843 3.751166 2.031658 -0.162445 0.939906 -12.662753 -8.249126 -7.993936 13.565063 -7.218025 -17.356585 6.061200 -3.780700 0.930100 -0.951877 5.143546 -2.056862 -61.921168 32.044777 -12.116175 10.111175 -17.595676 -0.393864 0.334745 -1.291588 27.358017 7.536603 50.748202 5.259800 -7.125000 0.000000 0.000000 -65.694300 73.368800 -49.087000 -1.600871 -3.765919 -1.360442 73.783055 -22.352967 -24.024623 -17.230647 28.761653 -3.936748 0.868868 0.081572 8.666365 -28.886983 18.609713 -10.121600 7.125000 0.000000 0.000000 -1.068000 -9.231100 -0.883000 
9.439394 16.383450 -0.511986 -1.941402 -57.871559 10.248037 -0.918565 -0.424114 -0.666536 6.435959 -6.642450 -23.618657 3.612823 12.247872 35.398296 1.465748 -7.814731 -10.135745 2.352000 -9.563800 -27.575400 1.658706 0.927206 -0.821071 -4.029716 5.735538 -25.182916 -5.502839 -13.911738 42.705819 -0.213081 -1.780491 -8.684260 -3.155900 10.943200 -32.088500 -3.486643 1.122242 19.972589 0.357992 0.835761 3.705269 2.116454 -0.219032 0.773151 -12.608581 -8.497800 -7.807969 13.859247 -7.521728 -17.303032 6.114200 -3.946700 0.972200 -0.940787 5.140088 -2.052949 -61.457996 32.295998 -12.306456 10.016086 -17.459124 -0.367382 0.341658 -1.289875 27.307622 7.328478 50.660044 5.084800 -7.125000 0.000000 0.000000 -65.514900 73.256100 -48.800400 -1.619491 -3.745359 -1.362711 73.180234 -22.234681 -23.992638 -17.090399 28.569939 -3.873584 0.863501 0.081861 9.110429 -28.756289 18.278359 -9.892100 7.125000 0.000000 0.000000 -1.020100 -9.628000 -0.835200 
9.368372 16.380680 -0.641268 -2.421761 -56.959157 10.581011 -0.912207 -0.421549 -0.664292 7.226071 -7.155927 -23.252424 3.398957 11.955291 34.387747 1.389622 -7.556647 -9.308042 2.264400 -9.396300 -27.043000 1.644362 0.928069 -0.812967 -3.213595 5.332030 -24.776754 -5.543341 -13.961611 42.861627 -0.388523 -1.161946 -9.412456 -3.610400 11.623100 -34.411200 -3.357059 0.993916 19.931181 0.301312 0.686708 3.726290 1.935130 -0.286353 0.842767 -12.542647 -8.628662 -7.600277 14.358973 -7.628500 -17.356996 6.243500 -4.014900 0.962200 -0.934608 5.156383 -2.048612 -60.995411 32.374335 -13.018865 9.926111 -17.337962 -0.338144 0.337206 -1.288345 27.769565 7.077990 50.726343 4.888100 -7.125000 0.000000 0.000000 -65.835300 73.183300 -49.004000 -1.630306 -3.717446 -1.354027 72.838188 -21.882362 -24.223992 -17.071028 28.551999 -3.867025 0.860579 0.081948 9.575884 -28.870361 18.004075 -9.787900 7.125000 0.000000 0.000000 -1.125200 -9.920300 -0.914700 
9.301011 16.367722 -0.777771 -2.946598 -56.219469 11.208863 -0.890535 -0.415057 -0.665585 8.137541 -7.612950 -23.063026 3.181574 11.643490 33.316407 1.329389 -7.365576 -8.534614 2.058700 -8.987300 -25.755600 1.638664 0.927233 -0.808385 -2.343094 5.039967 -24.846796 -5.602075 -14.009113 43.069913 -0.508959 -0.833096 -10.292470 -3.866900 11.981100 -35.665300 -3.161407 0.989479 19.723910 0.263457 0.724279 3.687934 1.748644 -0.261421 0.866388 -13.144565 -8.908050 -7.337916 15.287533 -7.770349 -17.294664 6.614700 -4.081300 1.034900 -0.935299 5.212349 -2.044962 -60.408619 32.261348 -13.241707 9.850821 -17.226299 -0.316991 0.331462 -1.283720 28.178190 6.927284 50.761819 4.770600 -7.125000 0.000000 0.000000 -65.998600 73.137100 -49.097600 -1.657906 -3.633430 -1.325515 72.499628 -21.668060 -24.643391 -17.040147 28.516719 -3.852704 0.858092 0.087122 9.910900 -29.085275 17.641476 -9.671900 7.125000 0.000000 0.000000 -1.307300 -10.298400 -1.052800 
9.227913 16.363864 -0.923078 -3.090209 -55.468980 11.528177 -0.878532 -0.409598 -0.664799 8.905929 -8.157895 -22.873652 2.967243 11.323908 32.233440 1.282091 -7.325518 -7.670591 1.805900 -8.449400 -24.087700 1.633128 0.930529 -0.807629 -1.609150 4.697499 -25.006675 -5.654811 -14.050174 43.257995 -0.588758 -0.738504 -11.311646 -3.830200 11.931000 -35.488400 -3.283854 1.094932 19.521209 0.291114 0.866331 3.670505 1.870758 -0.205631 0.903767 -13.915288 -9.401971 -7.246786 16.055006 -8.197065 -17.197760 6.940900 -4.285200 1.193700 -0.936500 5.256012 -2.036724 -59.952035 32.065443 -13.024334 9.785492 -17.123590 -0.304774 0.321913 -1.277314 28.273886 7.467936 50.620007 5.195900 -7.125000 0.000000 0.000000 -65.256800 73.289100 -48.608000 -1.684451 -3.556816 -1.303115 71.806515 -21.521594 -24.888805 -16.851646 28.260072 -3.763467 0.854576 0.093798 9.953724 -29.005331 17.343681 -9.478900 7.125000 0.000000 0.000000 -1.288200 -10.651300 -1.028100 
